<?xml version="1.0" encoding="UTF-8" standalone="no"?>
<svg
   xmlns:dc="http://purl.org/dc/elements/1.1/"
   xmlns:cc="http://creativecommons.org/ns#"
   xmlns:rdf="http://www.w3.org/1999/02/22-rdf-syntax-ns#"
   xmlns:svg="http://www.w3.org/2000/svg"
   xmlns="http://www.w3.org/2000/svg"
   xmlns:sodipodi="http://sodipodi.sourceforge.net/DTD/sodipodi-0.dtd"
   xmlns:inkscape="http://www.inkscape.org/namespaces/inkscape"
   sodipodi:docname="01.svg"
   inkscape:version="1.0 (4035a4fb49, 2020-05-01)"
   id="svg8"
   version="1.1"
   viewBox="0 0 44.674198 44.767715"
   height="44.767715mm"
   width="44.674198mm">
  <defs
     id="defs2" />
  <sodipodi:namedview
     inkscape:window-maximized="1"
     inkscape:window-y="-8"
     inkscape:window-x="-8"
     inkscape:window-height="1377"
     inkscape:window-width="2560"
     fit-margin-bottom="0"
     fit-margin-right="0"
     fit-margin-left="0"
     fit-margin-top="0"
     showborder="true"
     showgrid="false"
     inkscape:document-rotation="0"
     inkscape:current-layer="layer1"
     inkscape:document-units="mm"
     inkscape:cy="288.96511"
     inkscape:cx="-396.51795"
     inkscape:zoom="0.58116198"
     inkscape:pageshadow="2"
     inkscape:pageopacity="0.0"
     borderopacity="1.0"
     bordercolor="#666666"
     pagecolor="#ffffff"
     id="base" />
  <metadata
     id="metadata5">
    <rdf:RDF>
      <cc:Work
         rdf:about="">
        <dc:format>image/svg+xml</dc:format>
        <dc:type
           rdf:resource="http://purl.org/dc/dcmitype/StillImage" />
        <dc:title></dc:title>
      </cc:Work>
    </rdf:RDF>
  </metadata>
  <g
     transform="translate(-26.916926,-40.98796)"
     id="layer1"
     inkscape:groupmode="layer"
     inkscape:label="Layer 1">
    <rect
       y="41.205978"
       x="27.041426"
       height="44.425198"
       width="44.425198"
       id="rect833"
       style="fill:none;stroke:#000000;stroke-width:0.249;stroke-linecap:round;stroke-linejoin:round;paint-order:markers stroke fill" />
    <path
       transform="matrix(1.0856244,0,0,1.1602548,0.48267621,-4.811152)"
       d="m 43.591724,59.867489 c -0.219587,-0.720556 0.862959,-0.651496 1.197611,-0.364968 0.906889,0.776472 0.370198,2.182067 -0.467674,2.76019 -1.498758,1.034125 -3.504613,0.179984 -4.322769,-1.300318 -1.200678,-2.172402 0.0064,-4.848531 2.13296,-5.885348 2.834412,-1.381914 6.200487,0.190507 7.447927,2.965603 1.569777,3.492175 -0.373384,7.556383 -3.798246,9.010507 -4.147967,1.761138 -8.91452,-0.555509 -10.573085,-4.630889 -1.954562,-4.802695 0.737158,-10.274059 5.463531,-12.135665 5.456786,-2.149298 11.634532,0.918491 13.698244,6.296175 2.34492,6.110466 -1.099602,12.995661 -7.128817,15.260822 -6.763869,2.54117 -14.357268,-1.280554 -16.823402,-7.96146 -2.737877,-7.417072 1.461387,-15.719232 8.794103,-18.385981 8.070129,-2.934929 17.081474,1.642131 19.94856,9.626746 3.13225,8.723077 -1.822803,18.443932 -10.459389,21.511139 C 39.32534,79.963823 28.894713,74.630624 25.62756,65.342011 22.100079,55.313279 27.811549,44.172672 37.752234,40.705714 c 10.681472,-3.725318 22.53223,2.364522 26.198877,12.957317 0.734072,2.120706 1.12935,4.356054 1.171179,6.599685"
       sodipodi:t0="0"
       sodipodi:argument="-14.432973"
       sodipodi:radius="21.534193"
       sodipodi:revolution="4.3000002"
       sodipodi:expansion="1"
       sodipodi:cy="59.867489"
       sodipodi:cx="43.591724"
       id="path835"
       style="fill:none;fill-rule:evenodd;stroke:#000000;stroke-width:0.264583"
       sodipodi:type="spiral" />
  </g>
</svg>
